# xmcd
#
# Track frame offsets:
#	150
#	13155
#	27865
#	43100
#	56450
#	69875
#	82275
#	94350
#	108075
#	124570
#	137215
#	151220
#
# Disc length: 2033 seconds
#
# Revision: 1
# Processed by: cddbd v1.5.2PL0 Copyright (c) Steve Scherf et al.
# Submitted via: audiograbber 1.83.01
#
DISCID=9a07ef0c
DTITLE=Marcella Richard - Le Bon Fricot
DYEAR=1997
DGENRE=Acadian
TTITLE0=Les gars de Mont Carmel
TTITLE1=Marie Delphine
TTITLE2=Le bon fricot
TTITLE3=La chandelle
TTITLE4=I went to the market
TTITLE5=Prends ma main
TTITLE6=Si j'étais poète
TTITLE7=Jean
TTITLE8=A la claire fontaine
TTITLE9=Blues
TTITLE10=Berce dans ses bras
TTITLE11=Quand le soliel
EXTD=
EXTT0=
EXTT1=
EXTT2=
EXTT3=
EXTT4=
EXTT5=
EXTT6=
EXTT7=
EXTT8=
EXTT9=
EXTT10=
EXTT11=
PLAYORDER=
